<?xml version="1.0" encoding="utf-8"?>
<!-- Generator: Adobe Illustrator 23.0.1, SVG Export Plug-In . SVG Version: 6.00 Build 0)  -->
<svg version="1.1" id="Layer_1" xmlns="http://www.w3.org/2000/svg" xmlns:xlink="http://www.w3.org/1999/xlink" x="0px" y="0px"
	 viewBox="0 0 978.9 978.9" style="enable-background:new 0 0 978.9 978.9;" xml:space="preserve">
<path d="M532.7,637.9c-5.8-5.8-12.2-9.8-19.6-12.9c-7.7-3.3-14.9-5.2-23.6-5.2c-5.3,0-11.5,1-16.6,2.3c-9.1,2.4-19.1,8.3-25.8,15
	c-11.1,11.1-18.7,27.3-18.1,43.2c0.5,15.7,6,30.6,17,42c9,9.6,19.9,14.9,32,17.3c3.7,0.9,7.5,1.4,11.4,1.4c3.1,0.2,6.4-0.1,9.6-0.8
	c12.3-2,24.1-7.8,32.9-16.6c11.6-11.8,17.6-26.8,18.1-43.2c0.2-5.7-0.9-11.6-2.5-17.2C544.8,654,539.5,644.7,532.7,637.9z
	 M488.9,641c-0.2,0-0.4,0-0.7-0.1C488.4,640.9,488.7,640.9,488.9,641z M454,567.5c-9-9.1-14.6-22.6-14.6-35.4c0-10.8,0-21.7,0-32.6
	c0-47.1,0-94.3,0-141.5c0-29.5,0-59.1,0-88.7c0-13.6,5.7-25.6,14.6-35.4c9.1-9.8,22.5-14,35.4-14.6c12.5-0.6,26.7,5.9,35.4,14.6
	c9,9.1,14.6,22.6,14.6,35.4c0,10.8,0,21.7,0,32.6c0,47.1,0,94.3,0,141.5c0,29.5,0,59.1,0,88.7c0,13.6-5.6,25.6-14.6,35.4
	c-9.1,9.8-22.5,14-35.4,14.6C476.9,582.7,462.7,576.2,454,567.5z M978.9,489.6c-0.1-50.2-7.6-101.2-23.1-149
	c-15.1-46.4-36.7-91.2-65-131c-15.1-21.2-31.6-41.7-49.7-60.5c-18.1-18.7-37.8-35.2-58.4-51c-39-29.9-82.5-52.5-128.5-69.4
	C607.2,11.4,556.9,2.4,507,0.4c-50.6-2-102.4,4.3-151.2,18.1c-46.7,13.3-92.3,33.7-132.9,60.4c-40.4,26.6-77.5,58.7-108.3,96
	c-16.5,20-32,41-45.3,63.2c-13.6,22.7-24.7,46.6-34.7,71c-19.1,46.5-29.5,96-33.3,146.1c-3.9,50.6,0.9,102.3,12.8,151.6
	c11.5,47.5,30.9,94,56.3,135.8c24.9,41,56.1,79.1,92,111c36.3,32.2,77,59.9,121.3,79.9c24.1,10.9,48.7,20.5,74.1,27.6
	c26.3,7.3,53,11.8,80.1,14.9c50.7,5.9,102.3,2.6,152.2-7.5c48.2-9.7,95.2-27.7,138.1-51.7c41.9-23.4,81-53.6,114.1-88.3
	c33.4-34.9,62.4-75.1,83.9-118.4c22-44.2,38.2-91.4,45.7-140.2c3.9-25.5,6.6-51,6.9-76.7C978.9,492,978.9,490.8,978.9,489.6z
	 M875.7,543.1c-5.1,33.3-14,66-26.6,97.3c-13.5,30.8-30.6,60-50.7,86.9c-20.9,26.2-44.6,50-70.7,70.8
	c-27.3,20.4-56.8,37.6-88.1,51.3c-31.3,12.5-63.9,21.4-97.2,26.4c-35.2,4.2-70.9,4.2-106.1,0c-33.5-5.1-66.4-14.1-97.8-26.7
	c-30.8-13.5-60-30.5-86.9-50.7c-26.2-20.9-50-44.6-70.8-70.7c-20.4-27.3-37.6-56.8-51.3-88.1c-12.5-31.3-21.4-63.9-26.4-97.2
	c-4.2-35.2-4.2-70.9,0-106.1c5.1-33.5,14.1-66.4,26.7-97.8c13.5-30.8,30.6-60,50.7-86.9c20.9-26.2,44.6-50,70.7-70.8
	c27.3-20.4,56.8-37.6,88.1-51.3c31.3-12.5,63.9-21.4,97.2-26.4c35.2-4.2,70.9-4.2,106.1,0c33.5,5.1,66.4,14.1,97.8,26.7
	c30.8,13.5,60,30.6,86.9,50.7c26.2,20.9,50,44.6,70.8,70.7c20.4,27.3,37.6,56.8,51.3,88.1c12.4,31,21.2,63.5,26.3,96.5
	c2.1,17.9,3.2,35.8,3.3,53.8C878.9,507.5,877.8,525.3,875.7,543.1z"/>
</svg>
