<?xml version="1.0" encoding="utf-8"?>
<!-- Generator: Adobe Illustrator 23.0.1, SVG Export Plug-In . SVG Version: 6.00 Build 0)  -->
<svg version="1.1" xmlns="http://www.w3.org/2000/svg" xmlns:xlink="http://www.w3.org/1999/xlink" x="0px" y="0px"
	 viewBox="0 0 72.1 90" style="enable-background:new 0 0 72.1 90;" xml:space="preserve">
<g id="Layer_2">
</g>
<g id="Layer_1">
	<path d="M6.8,83.4c0,3.7,3,6.6,6.7,6.6h45.1c3.7,0,6.7-2.9,6.7-6.6L67.9,29H4.3L6.8,83.4z M48,39.9c0-1.9,1.1-3.4,3-3.4
		s3,1.5,3,3.4v37.6c0,1.9-1.1,3.4-3,3.4s-3-1.5-3-3.4V39.9z M33,39.9c0-1.9,1.1-3.4,3-3.4s3,1.5,3,3.4v37.6c0,1.9-1.1,3.4-3,3.4
		s-3-1.5-3-3.4V39.9z M18,39.9c0-1.9,1.1-3.4,3-3.4s3,1.5,3,3.4v37.6c0,1.9-1.1,3.4-3,3.4s-3-1.5-3-3.4V39.9z M69.1,12H51V3.1
		C51,1.3,50.1,0,48.2,0H24c-1.9,0-3,1.3-3,3.1V12H3.1C1.2,12,0,13.4,0,15.3v3.8C0,21,1.2,23,3.1,23h66.1c1.9,0,2.9-2.1,2.9-3.9v-3.8
		C72,13.4,71,12,69.1,12z M45,12H27V6h18V12z"/>
</g>
</svg>
